<?xml version="1.0" encoding="utf-8"?>
<!-- Generator: Adobe Illustrator 23.0.3, SVG Export Plug-In . SVG Version: 6.00 Build 0)  -->
<svg version="1.1" id="Layer_1" xmlns="http://www.w3.org/2000/svg" xmlns:xlink="http://www.w3.org/1999/xlink" x="0px" y="0px"
	 viewBox="0 0 30 30" style="enable-background:new 0 0 30 30;" xml:space="preserve">
<style type="text/css">
	.st0{enable-background:new    ;}
	.st1{fill:#898989;}
</style>
<g class="st0">
	<path class="st1" d="M11,14.7l6.5-6.5c0.1-0.1,0.2-0.1,0.3-0.1s0.3,0,0.4,0.1l0.7,0.7c0.2,0.1,0.2,0.2,0.2,0.3S19,9.4,19,9.4
		L13.4,15l5.6,5.5c0.1,0.1,0.1,0.2,0.1,0.3S19,21,19,21.1l-0.7,0.7C18.2,22,18.1,22,18,22s-0.2,0-0.3-0.1l-6.5-6.5
		C11.1,15.3,11,15.1,11,15C10.9,14.9,11,14.8,11,14.7z"/>
</g>
</svg>
