<?xml version="1.0" encoding="utf-8"?>
<!-- Generator: Adobe Illustrator 23.0.3, SVG Export Plug-In . SVG Version: 6.00 Build 0)  -->
<svg version="1.1" xmlns="http://www.w3.org/2000/svg" xmlns:xlink="http://www.w3.org/1999/xlink" x="0px" y="0px"
	 viewBox="0 0 120 120" style="enable-background:new 0 0 120 120;" xml:space="preserve">
<style type="text/css">
	.st0{display:none;}
	.st1{display:inline;}
	.st2{fill-rule:evenodd;clip-rule:evenodd;fill:#FFFFFF;}
	.st3{fill:#FFFFFF;}
</style>
<g id="Layer_1">
</g>
<g id="Layer_3" class="st0">
	<g class="st1">
		<path class="st2" d="M100,93.9h5.4c1.3,0,2.4-1.1,2.4-2.4V26.3H91.4c-0.4,0-0.7-0.1-1-0.4c-0.3-0.3-0.4-0.6-0.4-1V12H44.3
			C43,12,42,13.1,42,14.4v9h39.9L100,37.7V93.9z M26.1,26.1c3.3,0,6.5,0.9,9.3,2.6c2.8,1.7,5.1,4.2,6.6,7.1c0.1,0.1,0.1,0.2,0.2,0.3
			l0,0.1l0.1,0.2l0.6,1.2l0.4,1.2c0,0.1,0,0.1,0.1,0.2v0c0,0.1,0.1,0.3,0.1,0.4v0c0,0.1,0.1,0.3,0.1,0.4v0c0,0.1,0.1,0.3,0.1,0.4v0
			c0,0.1,0.1,0.3,0.1,0.4v0c0,0.1,0,0.3,0.1,0.4v0c0,0.1,0,0.3,0.1,0.4v0c0,0.1,0,0.3,0,0.4v0c0,0.1,0,0.3,0,0.4v0
			c0,0.1,0,0.3,0,0.4v0c0,0.1,0,0.3,0,0.5l0,0v0.4v1.2l-0.1,1.1v0.1c0,0.1,0,0.2,0,0.4v0.1c0,0.1,0,0.2-0.1,0.4l0,0.1
			c0,0.1,0,0.2-0.1,0.4l0,0.1c0,0.1,0,0.2-0.1,0.4l0,0.1c0,0.1,0,0.2-0.1,0.3l0,0.1c0,0.1-0.1,0.2-0.1,0.3l0,0.1
			c0,0.1-0.1,0.2-0.1,0.3c0,0.1,0,0.1,0,0.2L43,49.6c0,0.1,0,0.1-0.1,0.2s-0.1,0.1-0.1,0.2c0,0.1,0,0.1-0.1,0.2s0,0.1-0.1,0.2
			s-0.1,0.2-0.1,0.2l-0.1,0.1l-0.1,0.3l-0.1,0.1c0,0.1-0.1,0.2-0.1,0.3l0,0.1l0,0c0,0.1,0,0.1-0.1,0.2l-0.2,0.4v0l0,0
			c-1.9,3.8-5.1,6.8-9.1,8.4s-8.3,1.8-12.3,0.5c-4-1.3-7.5-4-9.7-7.6c-2.2-3.6-3.1-7.9-2.4-12.1c0.7-4.2,2.8-8,6-10.8
			S21.8,26.1,26.1,26.1L26.1,26.1z M24.7,45.2v6.2l0,0c-0.3-0.1-0.6-0.4-0.8-0.6c-0.6-0.6-0.9-1.4-0.9-2.3c-0.1-0.7-0.7-1.3-1.4-1.3
			s-1.3,0.6-1.4,1.3c0,1.3,0.5,2.6,1.3,3.7c0.8,1.1,2,1.8,3.3,2.1v1c0.1,0.7,0.7,1.3,1.4,1.3c0.7,0,1.3-0.6,1.4-1.3v-1
			c1.8-0.4,3.2-1.6,4-3.2c0.8-1.6,0.8-3.5,0-5.1c-0.8-1.6-2.2-2.8-4-3.2v-6.2c0.3,0.2,0.6,0.4,0.8,0.6c0.6,0.6,0.9,1.4,0.9,2.3
			c0,0.8,0.6,1.4,1.4,1.4s1.4-0.6,1.4-1.4c0-1.3-0.5-2.6-1.3-3.7c-0.8-1.1-2-1.8-3.3-2.1v-1c-0.1-0.7-0.7-1.3-1.4-1.3
			s-1.3,0.6-1.4,1.3v1c-1.8,0.4-3.2,1.6-4,3.2c-0.8,1.6-0.8,3.5,0,5.1C21.5,43.6,22.9,44.8,24.7,45.2L24.7,45.2z M24.7,36.6
			c-0.3,0.1-0.6,0.4-0.8,0.6c-0.6,0.6-0.9,1.4-0.9,2.3c0,0.8,0.3,1.7,0.9,2.3c0.2,0.2,0.5,0.5,0.8,0.6V36.6z M27.5,51.4L27.5,51.4
			c0.3-0.1,0.6-0.4,0.8-0.6c0.7-0.7,1.1-1.8,0.9-2.8s-0.8-1.9-1.7-2.3L27.5,51.4L27.5,51.4z M33.8,108L33.8,108
			c-1.3,0-2.4-1.1-2.4-2.4V63.9c4.8-1.3,9-4.3,11.8-8.4h28.1c0.7-0.1,1.3-0.7,1.3-1.4c0-0.7-0.6-1.3-1.3-1.4H44.8
			c0.9-1.9,1.5-4,1.8-6.1h24.8c0.7-0.1,1.3-0.7,1.3-1.4s-0.6-1.3-1.3-1.4H46.7c0-2-0.3-3.9-0.8-5.8h11.4c0.4,0,0.8-0.1,1.1-0.4
			c0.3-0.3,0.4-0.6,0.4-1c0-0.4-0.2-0.8-0.4-1c-0.3-0.3-0.7-0.4-1.1-0.4H44.8c-1.8-3.8-4.7-7-8.3-9.1h43v12.9c0,0.8,0.6,1.4,1.4,1.4
			h16.4v65.1c0,1.3-1.1,2.4-2.4,2.4H33.8z M95.5,37.7H82.2V27.3L95.5,37.7L95.5,37.7z M77.1,61h9c0.4,0,0.8,0.2,1.1,0.5
			c0.3,0.3,0.5,0.7,0.5,1.1v38.3c0,0.4-0.2,0.8-0.5,1.1c-0.3,0.3-0.7,0.5-1.1,0.5h-9c-0.9,0-1.6-0.7-1.6-1.6V62.6
			C75.5,61.7,76.2,61,77.1,61z M84.5,64.2v35.1h-5.8V64.2H84.5z M42.5,81.8h9c0.4,0,0.8,0.2,1.1,0.5c0.3,0.3,0.5,0.7,0.5,1.1v17.5
			c0,0.4-0.2,0.8-0.5,1.1c-0.3,0.3-0.7,0.5-1.1,0.5h-9c-0.9,0-1.6-0.7-1.6-1.6V83.4C40.9,82.5,41.6,81.8,42.5,81.8z M49.9,85v14.3
			h-5.8V85H49.9z M59.8,71.3h9c0.9,0,1.6,0.7,1.6,1.6v28c0,0.4-0.2,0.8-0.5,1.1c-0.3,0.3-0.7,0.5-1.1,0.5h-9c-0.4,0-0.8-0.2-1.1-0.5
			c-0.3-0.3-0.5-0.7-0.5-1.1v-28C58.2,72,58.9,71.3,59.8,71.3L59.8,71.3z M67.2,74.5v24.8h-5.8V74.5L67.2,74.5z M106,23.5H92.8V13.1
			L106,23.5z"/>
	</g>
</g>
<g id="Layer_2" class="st0">
	<g class="st1">
		<path class="st2" d="M44.6,77.1v25.7c0,1.4,0.5,2.7,1.5,3.6c1,1,2.3,1.5,3.6,1.5h53.1c2.8,0,5.2-2.3,5.2-5.2V49.7
			c0-1.4-0.5-2.7-1.5-3.6c-1-1-2.3-1.5-3.6-1.5H77.1V17.1c0-2.8-2.3-5.1-5.2-5.1H17.1c-2.8,0-5.2,2.3-5.2,5.1V72
			c0,2.8,2.3,5.2,5.2,5.2L44.6,77.1L44.6,77.1z M77.1,48v24c0,2.8-2.3,5.2-5.2,5.2H48v25.7c0,0.5,0.2,0.9,0.5,1.2
			c0.3,0.3,0.8,0.5,1.2,0.5h53.2c0.9,0,1.7-0.8,1.7-1.7V49.7c0-0.5-0.2-0.9-0.5-1.2c-0.3-0.3-0.8-0.5-1.2-0.5L77.1,48L77.1,48z
			 M85.7,97.7h-5.2V82.3c0-0.9-0.8-1.7-1.7-1.7h-5.1c-0.9,0-1.7,0.8-1.7,1.7v15.4h-5.1v-12c0-0.9-0.8-1.7-1.7-1.7H60
			c-0.9,0-1.7,0.8-1.7,1.7v12h-5.1c-0.9,0-1.7,0.8-1.7,1.7c0,0.9,0.8,1.7,1.7,1.7h46.3c0.9,0,1.7-0.8,1.7-1.7c0-0.9-0.8-1.7-1.7-1.7
			h-5.2V54.8c0-0.9-0.8-1.7-1.7-1.7h-5.1c-0.9,0-1.7,0.8-1.7,1.7L85.7,97.7L85.7,97.7z M20.6,70.3h48c0.9,0,1.7-0.8,1.7-1.7
			s-0.8-1.7-1.7-1.7h-48c-0.9,0-1.7,0.8-1.7,1.7S19.6,70.3,20.6,70.3z M60.3,27.4h-7.4c-0.7-2-2.6-3.4-4.9-3.4
			c-2.8,0-5.2,2.3-5.2,5.2c0,2.2,1.4,4.1,3.4,4.9v2.3c-1.5,0.5-2.6,1.7-3.1,3.1h-5.7c-0.7-2-2.6-3.4-4.9-3.4c-2.8,0-5.2,2.3-5.2,5.2
			c0,2.2,1.4,4.1,3.4,4.9v5.7c-1.5,0.5-2.6,1.7-3.1,3.1h-7.2c-0.9,0-1.7,0.8-1.7,1.7s0.8,1.7,1.7,1.7h7.2c0.7,2,2.6,3.4,4.9,3.4
			c2.8,0,5.2-2.3,5.2-5.2c0-2.2-1.4-4.1-3.4-4.9V46c1.5-0.5,2.6-1.7,3.1-3.1h5.7c0.7,2,2.6,3.4,4.9,3.4c2.8,0,5.2-2.3,5.2-5.2
			c0-2.2-1.4-4.1-3.4-4.9V34c1.5-0.5,2.6-1.7,3.1-3.1h7.4c0.7,2,2.6,3.4,4.9,3.4c2.8,0,5.2-2.3,5.2-5.2S68,24,65.2,24
			C62.9,24,61,25.4,60.3,27.4z M32.6,54.8c0.9,0,1.7,0.8,1.7,1.7s-0.8,1.7-1.7,1.7c-1,0-1.7-0.8-1.7-1.7S31.6,54.8,32.6,54.8z
			 M32.6,39.4c0.9,0,1.7,0.8,1.7,1.7c0,1-0.8,1.7-1.7,1.7c-1,0-1.7-0.8-1.7-1.7C30.8,40.2,31.6,39.4,32.6,39.4z M48,39.4
			c0.9,0,1.7,0.8,1.7,1.7c0,1-0.8,1.7-1.7,1.7s-1.7-0.8-1.7-1.7C46.3,40.2,47,39.4,48,39.4z M65.2,27.4c0.9,0,1.7,0.8,1.7,1.7
			c0,0.9-0.8,1.7-1.7,1.7s-1.7-0.8-1.7-1.7C63.4,28.2,64.2,27.4,65.2,27.4z M48,27.4c0.9,0,1.7,0.8,1.7,1.7c0,0.9-0.8,1.7-1.7,1.7
			s-1.7-0.8-1.7-1.7C46.3,28.2,47,27.4,48,27.4z"/>
	</g>
</g>
<g id="Layer_4">
	<g>
		<path class="st2" d="M24,22.2h4.4v72.6c0,3.2,2.6,5.8,5.8,5.8h54.6v4.4c0,1.7-1.3,3-3,3H24c-1.7,0-3-1.3-3-3V25.2
			C21,23.5,22.4,22.2,24,22.2L24,22.2z M34.2,12c-1.7,0-3,1.3-3,3v79.8c0,1.7,1.3,3,3,3H96c1.7,0,3-1.3,3-3V28.8H88
			c-3.2,0-5.8-2.6-5.8-5.8V12L34.2,12z M88,26h10.7c-0.1-0.3-0.3-0.6-0.6-0.9L85.9,12.9c-0.3-0.3-0.6-0.5-0.9-0.6V23
			C85,24.6,86.4,26,88,26z M42.6,31h25.8c0.8,0,1.4-0.6,1.4-1.4c0-0.8-0.6-1.4-1.4-1.4H42.6c-0.8,0-1.4,0.6-1.4,1.4
			C41.2,30.3,41.8,31,42.6,31z M42.6,37.7h14.7c0.8,0,1.4-0.6,1.4-1.4c0-0.8-0.6-1.4-1.4-1.4H42.6c-0.8,0-1.4,0.6-1.4,1.4
			C41.2,37.1,41.8,37.7,42.6,37.7z M77.7,40.8l0.8,0.2L45.5,60c-0.7,0.4-0.9,1.2-0.5,1.9c0.4,0.7,1.2,0.9,1.9,0.5l33-19.1l-0.3,0.8
			c-0.2,0.7,0.2,1.5,0.9,1.8c0.7,0.2,1.5-0.2,1.8-0.9l1.4-4.2c0-0.1,0-0.1,0.1-0.2c0.2-0.8-0.3-1.5-1.1-1.7l-4.4-0.9
			c-0.8-0.2-1.5,0.3-1.7,1.1C76.5,39.9,76.9,40.6,77.7,40.8L77.7,40.8z M50.6,83V72.4h-5.9l0,0V83l0,0L50.6,83L50.6,83z M79.5,83
			h5.9l0,0V51l0,0h-5.9l0,0L79.5,83z M70.8,83h5.9V56.1h-5.9l0,0V83z M62.1,83H68V61.2h-5.9l0,0V83z M53.4,83h5.9V67.5h-5.9l0,0V83z
			"/>
	</g>
</g>
<g id="Layer_5" class="st0">
	<g class="st1">
		<path class="st2" d="M107.6,21.4l-9.5-9.5c-1.1-1.1-2.9-1.1-4,0l-9.6,9.6L98,35l9.6-9.6C108.8,24.3,108.8,22.5,107.6,21.4
			L107.6,21.4z M81.4,24.5L41.2,64.7L36.5,83l18.3-4.7L95,38.1L81.4,24.5L81.4,24.5z M53.1,75L41,78.5l3.5-12.1L53.1,75z"/>
		<path class="st3" d="M16.6,30.7h51.3l-6.2,6.2h-42v63.9h63.9V56.7l6.2-6.2v53.3c0,1.7-1.4,3.1-3.1,3.1H16.6
			c-1.7,0-3.1-1.4-3.1-3.1V33.8C13.5,32.1,14.9,30.7,16.6,30.7L16.6,30.7z"/>
	</g>
</g>
</svg>
