<?xml version="1.0" encoding="utf-8"?>
<!-- Generator: Adobe Illustrator 23.0.3, SVG Export Plug-In . SVG Version: 6.00 Build 0)  -->
<svg version="1.1" xmlns="http://www.w3.org/2000/svg" xmlns:xlink="http://www.w3.org/1999/xlink" x="0px" y="0px"
	 viewBox="0 0 120 120" style="enable-background:new 0 0 120 120;" xml:space="preserve">
<style type="text/css">
	.st0{display:none;}
	.st1{display:inline;}
	.st2{fill-rule:evenodd;clip-rule:evenodd;fill:#FFFFFF;}
	.st3{fill:#FFFFFF;}
</style>
<g id="Layer_1">
</g>
<g id="Layer_3" class="st0">
	<g class="st1">
		<path class="st2" d="M100,93.9h5.4c1.3,0,2.4-1.1,2.4-2.4V26.3H91.4c-0.4,0-0.7-0.1-1-0.4c-0.3-0.3-0.4-0.6-0.4-1V12H44.3
			C43,12,42,13.1,42,14.4v9h39.9L100,37.7V93.9z M26.1,26.1c3.3,0,6.5,0.9,9.3,2.6c2.8,1.7,5.1,4.2,6.6,7.1c0.1,0.1,0.1,0.2,0.2,0.3
			l0,0.1l0.1,0.2l0.6,1.2l0.4,1.2c0,0.1,0,0.1,0.1,0.2v0c0,0.1,0.1,0.3,0.1,0.4v0c0,0.1,0.1,0.3,0.1,0.4v0c0,0.1,0.1,0.3,0.1,0.4v0
			c0,0.1,0.1,0.3,0.1,0.4v0c0,0.1,0,0.3,0.1,0.4v0c0,0.1,0,0.3,0.1,0.4v0c0,0.1,0,0.3,0,0.4v0c0,0.1,0,0.3,0,0.4v0
			c0,0.1,0,0.3,0,0.4v0c0,0.1,0,0.3,0,0.5l0,0v0.4v1.2l-0.1,1.1v0.1c0,0.1,0,0.2,0,0.4v0.1c0,0.1,0,0.2-0.1,0.4l0,0.1
			c0,0.1,0,0.2-0.1,0.4l0,0.1c0,0.1,0,0.2-0.1,0.4l0,0.1c0,0.1,0,0.2-0.1,0.3l0,0.1c0,0.1-0.1,0.2-0.1,0.3l0,0.1
			c0,0.1-0.1,0.2-0.1,0.3c0,0.1,0,0.1,0,0.2L43,49.6c0,0.1,0,0.1-0.1,0.2s-0.1,0.1-0.1,0.2c0,0.1,0,0.1-0.1,0.2s0,0.1-0.1,0.2
			s-0.1,0.2-0.1,0.2l-0.1,0.1l-0.1,0.3l-0.1,0.1c0,0.1-0.1,0.2-0.1,0.3l0,0.1l0,0c0,0.1,0,0.1-0.1,0.2l-0.2,0.4v0l0,0
			c-1.9,3.8-5.1,6.8-9.1,8.4s-8.3,1.8-12.3,0.5c-4-1.3-7.5-4-9.7-7.6c-2.2-3.6-3.1-7.9-2.4-12.1c0.7-4.2,2.8-8,6-10.8
			S21.8,26.1,26.1,26.1L26.1,26.1z M24.7,45.2v6.2l0,0c-0.3-0.1-0.6-0.4-0.8-0.6c-0.6-0.6-0.9-1.4-0.9-2.3c-0.1-0.7-0.7-1.3-1.4-1.3
			s-1.3,0.6-1.4,1.3c0,1.3,0.5,2.6,1.3,3.7c0.8,1.1,2,1.8,3.3,2.1v1c0.1,0.7,0.7,1.3,1.4,1.3c0.7,0,1.3-0.6,1.4-1.3v-1
			c1.8-0.4,3.2-1.6,4-3.2c0.8-1.6,0.8-3.5,0-5.1c-0.8-1.6-2.2-2.8-4-3.2v-6.2c0.3,0.2,0.6,0.4,0.8,0.6c0.6,0.6,0.9,1.4,0.9,2.3
			c0,0.8,0.6,1.4,1.4,1.4s1.4-0.6,1.4-1.4c0-1.3-0.5-2.6-1.3-3.7c-0.8-1.1-2-1.8-3.3-2.1v-1c-0.1-0.7-0.7-1.3-1.4-1.3
			s-1.3,0.6-1.4,1.3v1c-1.8,0.4-3.2,1.6-4,3.2c-0.8,1.6-0.8,3.5,0,5.1C21.5,43.6,22.9,44.8,24.7,45.2L24.7,45.2z M24.7,36.6
			c-0.3,0.1-0.6,0.4-0.8,0.6c-0.6,0.6-0.9,1.4-0.9,2.3c0,0.8,0.3,1.7,0.9,2.3c0.2,0.2,0.5,0.5,0.8,0.6V36.6z M27.5,51.4L27.5,51.4
			c0.3-0.1,0.6-0.4,0.8-0.6c0.7-0.7,1.1-1.8,0.9-2.8s-0.8-1.9-1.7-2.3L27.5,51.4L27.5,51.4z M33.8,108L33.8,108
			c-1.3,0-2.4-1.1-2.4-2.4V63.9c4.8-1.3,9-4.3,11.8-8.4h28.1c0.7-0.1,1.3-0.7,1.3-1.4c0-0.7-0.6-1.3-1.3-1.4H44.8
			c0.9-1.9,1.5-4,1.8-6.1h24.8c0.7-0.1,1.3-0.7,1.3-1.4s-0.6-1.3-1.3-1.4H46.7c0-2-0.3-3.9-0.8-5.8h11.4c0.4,0,0.8-0.1,1.1-0.4
			c0.3-0.3,0.4-0.6,0.4-1c0-0.4-0.2-0.8-0.4-1c-0.3-0.3-0.7-0.4-1.1-0.4H44.8c-1.8-3.8-4.7-7-8.3-9.1h43v12.9c0,0.8,0.6,1.4,1.4,1.4
			h16.4v65.1c0,1.3-1.1,2.4-2.4,2.4H33.8z M95.5,37.7H82.2V27.3L95.5,37.7L95.5,37.7z M77.1,61h9c0.4,0,0.8,0.2,1.1,0.5
			c0.3,0.3,0.5,0.7,0.5,1.1v38.3c0,0.4-0.2,0.8-0.5,1.1c-0.3,0.3-0.7,0.5-1.1,0.5h-9c-0.9,0-1.6-0.7-1.6-1.6V62.6
			C75.5,61.7,76.2,61,77.1,61z M84.5,64.2v35.1h-5.8V64.2H84.5z M42.5,81.8h9c0.4,0,0.8,0.2,1.1,0.5c0.3,0.3,0.5,0.7,0.5,1.1v17.5
			c0,0.4-0.2,0.8-0.5,1.1c-0.3,0.3-0.7,0.5-1.1,0.5h-9c-0.9,0-1.6-0.7-1.6-1.6V83.4C40.9,82.5,41.6,81.8,42.5,81.8z M49.9,85v14.3
			h-5.8V85H49.9z M59.8,71.3h9c0.9,0,1.6,0.7,1.6,1.6v28c0,0.4-0.2,0.8-0.5,1.1c-0.3,0.3-0.7,0.5-1.1,0.5h-9c-0.4,0-0.8-0.2-1.1-0.5
			c-0.3-0.3-0.5-0.7-0.5-1.1v-28C58.2,72,58.9,71.3,59.8,71.3L59.8,71.3z M67.2,74.5v24.8h-5.8V74.5L67.2,74.5z M106,23.5H92.8V13.1
			L106,23.5z"/>
	</g>
</g>
<g id="Layer_2">
	<g>
		<path class="st2" d="M43.9,77.9v26.8c0,1.4,0.6,2.8,1.6,3.8c1,1,2.4,1.6,3.8,1.6h55.3c3,0,5.4-2.4,5.4-5.4V49.3
			c0-1.4-0.6-2.8-1.6-3.8c-1-1-2.4-1.6-3.8-1.6H77.9V15.3c0-3-2.4-5.3-5.4-5.3H15.3c-3,0-5.4,2.4-5.4,5.3v57.1c0,3,2.4,5.4,5.4,5.4
			L43.9,77.9L43.9,77.9z M77.9,47.5v25c0,3-2.4,5.4-5.4,5.4h-25v26.8c0,0.5,0.2,0.9,0.5,1.3c0.3,0.3,0.8,0.5,1.3,0.5h55.4
			c1,0,1.8-0.8,1.8-1.8V49.3c0-0.5-0.2-0.9-0.5-1.3c-0.3-0.3-0.8-0.5-1.3-0.5L77.9,47.5L77.9,47.5z M86.8,99.3h-5.4V83.2
			c0-1-0.8-1.8-1.8-1.8h-5.3c-1,0-1.8,0.8-1.8,1.8v16.1h-5.3V86.8c0-1-0.8-1.8-1.8-1.8H60c-1,0-1.8,0.8-1.8,1.8v12.5h-5.3
			c-1,0-1.8,0.8-1.8,1.8c0,1,0.8,1.8,1.8,1.8h48.2c1,0,1.8-0.8,1.8-1.8c0-1-0.8-1.8-1.8-1.8h-5.4V54.6c0-1-0.8-1.8-1.8-1.8h-5.3
			c-1,0-1.8,0.8-1.8,1.8L86.8,99.3L86.8,99.3z M18.9,70.7h50c1,0,1.8-0.8,1.8-1.8s-0.8-1.8-1.8-1.8h-50c-1,0-1.8,0.8-1.8,1.8
			S17.9,70.7,18.9,70.7z M60.3,26.1h-7.8c-0.7-2.1-2.7-3.6-5.1-3.6c-3,0-5.4,2.4-5.4,5.4c0,2.3,1.5,4.3,3.6,5.1v2.4
			c-1.5,0.5-2.7,1.7-3.3,3.3h-6c-0.7-2.1-2.7-3.6-5.1-3.6c-3,0-5.4,2.4-5.4,5.4c0,2.3,1.5,4.3,3.6,5.1v6c-1.5,0.5-2.7,1.7-3.3,3.3
			h-7.4c-1,0-1.8,0.8-1.8,1.8s0.8,1.8,1.8,1.8h7.4c0.7,2.1,2.7,3.6,5.1,3.6c3,0,5.4-2.4,5.4-5.4c0-2.3-1.5-4.3-3.6-5.1v-6
			c1.5-0.5,2.7-1.7,3.3-3.3h6c0.7,2.1,2.7,3.6,5.1,3.6c3,0,5.4-2.4,5.4-5.4c0-2.3-1.5-4.3-3.6-5.1v-2.4c1.5-0.5,2.7-1.7,3.3-3.3h7.8
			c0.7,2.1,2.7,3.6,5.1,3.6c3,0,5.4-2.4,5.4-5.4s-2.4-5.4-5.4-5.4C63,22.5,61,24,60.3,26.1z M31.4,54.6c1,0,1.8,0.8,1.8,1.8
			s-0.8,1.8-1.8,1.8s-1.8-0.8-1.8-1.8S30.4,54.6,31.4,54.6z M31.4,38.6c1,0,1.8,0.8,1.8,1.8c0,1-0.8,1.8-1.8,1.8s-1.8-0.8-1.8-1.8
			C29.6,39.4,30.4,38.6,31.4,38.6z M47.5,38.6c1,0,1.8,0.8,1.8,1.8c0,1-0.8,1.8-1.8,1.8s-1.8-0.8-1.8-1.8
			C45.7,39.4,46.5,38.6,47.5,38.6z M65.4,26.1c1,0,1.8,0.8,1.8,1.8c0,1-0.8,1.8-1.8,1.8s-1.8-0.8-1.8-1.8
			C63.6,26.9,64.4,26.1,65.4,26.1z M47.5,26.1c1,0,1.8,0.8,1.8,1.8c0,1-0.8,1.8-1.8,1.8s-1.8-0.8-1.8-1.8
			C45.7,26.9,46.5,26.1,47.5,26.1z"/>
	</g>
</g>
<g id="Layer_4" class="st0">
	<g class="st1">
		<path class="st2" d="M24,22.2h4.4v72.6c0,3.2,2.6,5.8,5.8,5.8h54.6v4.4c0,1.7-1.3,3-3,3H24c-1.7,0-3-1.3-3-3V25.2
			C21,23.5,22.4,22.2,24,22.2L24,22.2z M34.2,12c-1.7,0-3,1.3-3,3v79.8c0,1.7,1.3,3,3,3H96c1.7,0,3-1.3,3-3V28.8H88
			c-3.2,0-5.8-2.6-5.8-5.8V12L34.2,12z M88,26h10.7c-0.1-0.3-0.3-0.6-0.6-0.9L85.9,12.9c-0.3-0.3-0.6-0.5-0.9-0.6V23
			C85,24.6,86.4,26,88,26z M42.6,31h25.8c0.8,0,1.4-0.6,1.4-1.4c0-0.8-0.6-1.4-1.4-1.4H42.6c-0.8,0-1.4,0.6-1.4,1.4
			C41.2,30.3,41.8,31,42.6,31z M42.6,37.7h14.7c0.8,0,1.4-0.6,1.4-1.4c0-0.8-0.6-1.4-1.4-1.4H42.6c-0.8,0-1.4,0.6-1.4,1.4
			C41.2,37.1,41.8,37.7,42.6,37.7z M77.7,40.8l0.8,0.2L45.5,60c-0.7,0.4-0.9,1.2-0.5,1.9c0.4,0.7,1.2,0.9,1.9,0.5l33-19.1l-0.3,0.8
			c-0.2,0.7,0.2,1.5,0.9,1.8c0.7,0.2,1.5-0.2,1.8-0.9l1.4-4.2c0-0.1,0-0.1,0.1-0.2c0.2-0.8-0.3-1.5-1.1-1.7l-4.4-0.9
			c-0.8-0.2-1.5,0.3-1.7,1.1C76.5,39.9,76.9,40.6,77.7,40.8L77.7,40.8z M50.6,83V72.4h-5.9l0,0V83l0,0L50.6,83L50.6,83z M79.5,83
			h5.9l0,0V51l0,0h-5.9l0,0L79.5,83z M70.8,83h5.9V56.1h-5.9l0,0V83z M62.1,83H68V61.2h-5.9l0,0V83z M53.4,83h5.9V67.5h-5.9l0,0V83z
			"/>
	</g>
</g>
<g id="Layer_5" class="st0">
	<g class="st1">
		<path class="st2" d="M105.7,23l-9.1-9.1c-1.1-1.1-2.8-1.1-3.9,0L83.5,23l13,13l9.2-9.2C106.8,25.8,106.8,24,105.7,23L105.7,23z
			 M80.6,25.9L42,64.5L37.5,82l17.5-4.5l38.6-38.6L80.6,25.9L80.6,25.9z M53.4,74.3l-11.6,3.4l3.4-11.6L53.4,74.3z"/>
		<path class="st3" d="M18.5,31.9h49.1l-5.9,5.9H21.4v61.2h61.2V56.8l5.9-5.9V102c0,1.6-1.3,3-3,3H18.5c-1.6,0-3-1.3-3-3V34.9
			C15.5,33.2,16.8,31.9,18.5,31.9L18.5,31.9z"/>
	</g>
</g>
</svg>
