<?xml version="1.0" encoding="utf-8"?>
<!-- Generator: Adobe Illustrator 23.0.3, SVG Export Plug-In . SVG Version: 6.00 Build 0)  -->
<svg version="1.1" id="Layer_1" xmlns="http://www.w3.org/2000/svg" xmlns:xlink="http://www.w3.org/1999/xlink" x="0px" y="0px"
	 viewBox="0 0 100 100" style="enable-background:new 0 0 100 100;" xml:space="preserve">
<style type="text/css">
	.st0{fill-rule:evenodd;clip-rule:evenodd;fill:#FFFFFF;}
</style>
<g>
	<path class="st0" d="M45.5,5c-1.8,0-3.5,0.6-4.9,1.8s-2.3,3.1-2.3,5.4v18.5l-13.1-3.9l0,0c-0.5-0.2-1.1-0.1-1.6,0.1
		c-0.5,0.3-0.8,0.7-1,1.2L21,33.5l-0.5-0.2c-4.8-1.4-9.8,1.4-11.3,6.2l-1.5,5c-1.4,4.8,1.2,9.9,6,11.3l0.5,0.2l-1.6,5.4l0,0
		c-0.2,0.5-0.1,1.1,0.1,1.6c0.3,0.5,0.7,0.8,1.2,1l42.5,12.7l15.4,17.5c0.5,0.5,1.2,0.8,2,0.6c0.7-0.2,1.3-0.7,1.5-1.4l17.3-57.7
		c0.2-0.7,0-1.5-0.5-2c-0.5-0.5-1.3-0.7-2-0.5l-22.5,6.1l-15-4.5V12.2c0-2.2-0.9-4.1-2.3-5.4S47.2,5,45.5,5L45.5,5z M45.5,9.1
		c0.9,0,1.7,0.3,2.2,0.8c0.5,0.5,0.9,1.1,0.9,2.3v27.8c-1-0.3-2-0.4-3.1-0.4c-1.1,0-2.2,0.1-3.2,0.4V12.2c0-1.2,0.4-1.8,0.9-2.3
		C43.8,9.4,44.6,9.1,45.5,9.1L45.5,9.1z M17.8,37.1c0.5,0,1,0.1,1.5,0.2c0,0,0,0,0,0l0.5,0.2l-4.4,14.7L14.8,52
		c-2.6-0.8-4.1-3.6-3.3-6.3l1.5-5C13.7,38.5,15.7,37.1,17.8,37.1L17.8,37.1z M45.5,43.6c1.4,0,2.7,0.4,3.7,1.1l0,0v0
		c1.9,1.2,3.1,3.3,3.1,5.7c0,3.8-3,6.9-6.8,6.9c-3.8,0-6.9-3.1-6.9-6.9c0-2.4,1.2-4.5,3.1-5.7C42.7,44,44,43.6,45.5,43.6L45.5,43.6z
		 M24,51.3L24,51.3c0.1,0,0.1,0,0.2,0c0.2,0,0.4,0,0.6,0.1l6.4,1.9c0.6,0.1,1.1,0.5,1.4,1c0.3,0.5,0.4,1.1,0.2,1.6
		c-0.2,0.5-0.6,1-1.1,1.3c-0.5,0.3-1.1,0.3-1.6,0.1l-6.4-1.9c-1-0.2-1.6-1.2-1.5-2.2C22.2,52.1,23,51.4,24,51.3L24,51.3z M22.5,56.5
		L22.5,56.5c0.1,0,0.1,0,0.2,0c0.2,0,0.4,0,0.6,0.1l12.1,3.6l0,0c0.5,0.1,1,0.5,1.2,1c0.3,0.5,0.3,1,0.2,1.6c-0.1,0.5-0.5,1-1,1.2
		c-0.5,0.3-1,0.3-1.6,0.2l-12.1-3.6l0,0c-0.9-0.3-1.5-1.2-1.4-2.2C20.7,57.4,21.5,56.6,22.5,56.5L22.5,56.5z"/>
</g>
</svg>
