<?xml version="1.0" encoding="utf-8"?>
<!-- Generator: Adobe Illustrator 23.0.3, SVG Export Plug-In . SVG Version: 6.00 Build 0)  -->
<svg version="1.1" xmlns="http://www.w3.org/2000/svg" xmlns:xlink="http://www.w3.org/1999/xlink" x="0px" y="0px"
	 viewBox="0 0 120 120" style="enable-background:new 0 0 120 120;" xml:space="preserve">
<style type="text/css">
	.st0{display:none;}
	.st1{display:inline;}
	.st2{fill-rule:evenodd;clip-rule:evenodd;fill:#FFFFFF;}
	.st3{fill:#FFFFFF;}
	.st4{fill:#2E2B78;}
	.st5{fill-rule:evenodd;clip-rule:evenodd;fill:#2E2B78;}
</style>
<g id="Layer_1">
</g>
<g id="Layer_3" class="st0">
	<g class="st1">
		<path class="st2" d="M100,93.9h5.4c1.3,0,2.4-1.1,2.4-2.4V26.3H91.4c-0.4,0-0.7-0.1-1-0.4c-0.3-0.3-0.4-0.6-0.4-1V12H44.3
			C43,12,42,13.1,42,14.4v9h39.9L100,37.7V93.9z M26.1,26.1c3.3,0,6.5,0.9,9.3,2.6c2.8,1.7,5.1,4.2,6.6,7.1c0.1,0.1,0.1,0.2,0.2,0.3
			l0,0.1l0.1,0.2l0.6,1.2l0.4,1.2c0,0.1,0,0.1,0.1,0.2v0c0,0.1,0.1,0.3,0.1,0.4v0c0,0.1,0.1,0.3,0.1,0.4v0c0,0.1,0.1,0.3,0.1,0.4v0
			c0,0.1,0.1,0.3,0.1,0.4v0c0,0.1,0,0.3,0.1,0.4v0c0,0.1,0,0.3,0.1,0.4v0c0,0.1,0,0.3,0,0.4v0c0,0.1,0,0.3,0,0.4v0
			c0,0.1,0,0.3,0,0.4v0c0,0.1,0,0.3,0,0.5l0,0v0.4v1.2l-0.1,1.1v0.1c0,0.1,0,0.2,0,0.4v0.1c0,0.1,0,0.2-0.1,0.4l0,0.1
			c0,0.1,0,0.2-0.1,0.4l0,0.1c0,0.1,0,0.2-0.1,0.4l0,0.1c0,0.1,0,0.2-0.1,0.3l0,0.1c0,0.1-0.1,0.2-0.1,0.3l0,0.1
			c0,0.1-0.1,0.2-0.1,0.3c0,0.1,0,0.1,0,0.2L43,49.6c0,0.1,0,0.1-0.1,0.2s-0.1,0.1-0.1,0.2c0,0.1,0,0.1-0.1,0.2s0,0.1-0.1,0.2
			s-0.1,0.2-0.1,0.2l-0.1,0.1l-0.1,0.3l-0.1,0.1c0,0.1-0.1,0.2-0.1,0.3l0,0.1l0,0c0,0.1,0,0.1-0.1,0.2l-0.2,0.4v0l0,0
			c-1.9,3.8-5.1,6.8-9.1,8.4s-8.3,1.8-12.3,0.5c-4-1.3-7.5-4-9.7-7.6c-2.2-3.6-3.1-7.9-2.4-12.1c0.7-4.2,2.8-8,6-10.8
			S21.8,26.1,26.1,26.1L26.1,26.1z M24.7,45.2v6.2l0,0c-0.3-0.1-0.6-0.4-0.8-0.6c-0.6-0.6-0.9-1.4-0.9-2.3c-0.1-0.7-0.7-1.3-1.4-1.3
			s-1.3,0.6-1.4,1.3c0,1.3,0.5,2.6,1.3,3.7c0.8,1.1,2,1.8,3.3,2.1v1c0.1,0.7,0.7,1.3,1.4,1.3c0.7,0,1.3-0.6,1.4-1.3v-1
			c1.8-0.4,3.2-1.6,4-3.2c0.8-1.6,0.8-3.5,0-5.1c-0.8-1.6-2.2-2.8-4-3.2v-6.2c0.3,0.2,0.6,0.4,0.8,0.6c0.6,0.6,0.9,1.4,0.9,2.3
			c0,0.8,0.6,1.4,1.4,1.4s1.4-0.6,1.4-1.4c0-1.3-0.5-2.6-1.3-3.7c-0.8-1.1-2-1.8-3.3-2.1v-1c-0.1-0.7-0.7-1.3-1.4-1.3
			s-1.3,0.6-1.4,1.3v1c-1.8,0.4-3.2,1.6-4,3.2c-0.8,1.6-0.8,3.5,0,5.1C21.5,43.6,22.9,44.8,24.7,45.2L24.7,45.2z M24.7,36.6
			c-0.3,0.1-0.6,0.4-0.8,0.6c-0.6,0.6-0.9,1.4-0.9,2.3c0,0.8,0.3,1.7,0.9,2.3c0.2,0.2,0.5,0.5,0.8,0.6V36.6z M27.5,51.4L27.5,51.4
			c0.3-0.1,0.6-0.4,0.8-0.6c0.7-0.7,1.1-1.8,0.9-2.8s-0.8-1.9-1.7-2.3L27.5,51.4L27.5,51.4z M33.8,108L33.8,108
			c-1.3,0-2.4-1.1-2.4-2.4V63.9c4.8-1.3,9-4.3,11.8-8.4h28.1c0.7-0.1,1.3-0.7,1.3-1.4c0-0.7-0.6-1.3-1.3-1.4H44.8
			c0.9-1.9,1.5-4,1.8-6.1h24.8c0.7-0.1,1.3-0.7,1.3-1.4s-0.6-1.3-1.3-1.4H46.7c0-2-0.3-3.9-0.8-5.8h11.4c0.4,0,0.8-0.1,1.1-0.4
			c0.3-0.3,0.4-0.6,0.4-1c0-0.4-0.2-0.8-0.4-1c-0.3-0.3-0.7-0.4-1.1-0.4H44.8c-1.8-3.8-4.7-7-8.3-9.1h43v12.9c0,0.8,0.6,1.4,1.4,1.4
			h16.4v65.1c0,1.3-1.1,2.4-2.4,2.4H33.8z M95.5,37.7H82.2V27.3L95.5,37.7L95.5,37.7z M77.1,61h9c0.4,0,0.8,0.2,1.1,0.5
			c0.3,0.3,0.5,0.7,0.5,1.1v38.3c0,0.4-0.2,0.8-0.5,1.1c-0.3,0.3-0.7,0.5-1.1,0.5h-9c-0.9,0-1.6-0.7-1.6-1.6V62.6
			C75.5,61.7,76.2,61,77.1,61z M84.5,64.2v35.1h-5.8V64.2H84.5z M42.5,81.8h9c0.4,0,0.8,0.2,1.1,0.5c0.3,0.3,0.5,0.7,0.5,1.1v17.5
			c0,0.4-0.2,0.8-0.5,1.1c-0.3,0.3-0.7,0.5-1.1,0.5h-9c-0.9,0-1.6-0.7-1.6-1.6V83.4C40.9,82.5,41.6,81.8,42.5,81.8z M49.9,85v14.3
			h-5.8V85H49.9z M59.8,71.3h9c0.9,0,1.6,0.7,1.6,1.6v28c0,0.4-0.2,0.8-0.5,1.1c-0.3,0.3-0.7,0.5-1.1,0.5h-9c-0.4,0-0.8-0.2-1.1-0.5
			c-0.3-0.3-0.5-0.7-0.5-1.1v-28C58.2,72,58.9,71.3,59.8,71.3L59.8,71.3z M67.2,74.5v24.8h-5.8V74.5L67.2,74.5z M106,23.5H92.8V13.1
			L106,23.5z"/>
	</g>
</g>
<g id="Layer_2" class="st0">
	<g class="st1">
		<path class="st2" d="M43.9,77.9v26.8c0,1.4,0.6,2.8,1.6,3.8c1,1,2.4,1.6,3.8,1.6h55.3c3,0,5.4-2.4,5.4-5.4V49.3
			c0-1.4-0.6-2.8-1.6-3.8c-1-1-2.4-1.6-3.8-1.6H77.9V15.3c0-3-2.4-5.3-5.4-5.3H15.3c-3,0-5.4,2.4-5.4,5.3v57.1c0,3,2.4,5.4,5.4,5.4
			L43.9,77.9L43.9,77.9z M77.9,47.5v25c0,3-2.4,5.4-5.4,5.4h-25v26.8c0,0.5,0.2,0.9,0.5,1.3c0.3,0.3,0.8,0.5,1.3,0.5h55.4
			c1,0,1.8-0.8,1.8-1.8V49.3c0-0.5-0.2-0.9-0.5-1.3c-0.3-0.3-0.8-0.5-1.3-0.5L77.9,47.5L77.9,47.5z M86.8,99.3h-5.4V83.2
			c0-1-0.8-1.8-1.8-1.8h-5.3c-1,0-1.8,0.8-1.8,1.8v16.1h-5.3V86.8c0-1-0.8-1.8-1.8-1.8H60c-1,0-1.8,0.8-1.8,1.8v12.5h-5.3
			c-1,0-1.8,0.8-1.8,1.8c0,1,0.8,1.8,1.8,1.8h48.2c1,0,1.8-0.8,1.8-1.8c0-1-0.8-1.8-1.8-1.8h-5.4V54.6c0-1-0.8-1.8-1.8-1.8h-5.3
			c-1,0-1.8,0.8-1.8,1.8L86.8,99.3L86.8,99.3z M18.9,70.7h50c1,0,1.8-0.8,1.8-1.8s-0.8-1.8-1.8-1.8h-50c-1,0-1.8,0.8-1.8,1.8
			S17.9,70.7,18.9,70.7z M60.3,26.1h-7.8c-0.7-2.1-2.7-3.6-5.1-3.6c-3,0-5.4,2.4-5.4,5.4c0,2.3,1.5,4.3,3.6,5.1v2.4
			c-1.5,0.5-2.7,1.7-3.3,3.3h-6c-0.7-2.1-2.7-3.6-5.1-3.6c-3,0-5.4,2.4-5.4,5.4c0,2.3,1.5,4.3,3.6,5.1v6c-1.5,0.5-2.7,1.7-3.3,3.3
			h-7.4c-1,0-1.8,0.8-1.8,1.8s0.8,1.8,1.8,1.8h7.4c0.7,2.1,2.7,3.6,5.1,3.6c3,0,5.4-2.4,5.4-5.4c0-2.3-1.5-4.3-3.6-5.1v-6
			c1.5-0.5,2.7-1.7,3.3-3.3h6c0.7,2.1,2.7,3.6,5.1,3.6c3,0,5.4-2.4,5.4-5.4c0-2.3-1.5-4.3-3.6-5.1v-2.4c1.5-0.5,2.7-1.7,3.3-3.3h7.8
			c0.7,2.1,2.7,3.6,5.1,3.6c3,0,5.4-2.4,5.4-5.4s-2.4-5.4-5.4-5.4C63,22.5,61,24,60.3,26.1z M31.4,54.6c1,0,1.8,0.8,1.8,1.8
			s-0.8,1.8-1.8,1.8s-1.8-0.8-1.8-1.8S30.4,54.6,31.4,54.6z M31.4,38.6c1,0,1.8,0.8,1.8,1.8c0,1-0.8,1.8-1.8,1.8s-1.8-0.8-1.8-1.8
			C29.6,39.4,30.4,38.6,31.4,38.6z M47.5,38.6c1,0,1.8,0.8,1.8,1.8c0,1-0.8,1.8-1.8,1.8s-1.8-0.8-1.8-1.8
			C45.7,39.4,46.5,38.6,47.5,38.6z M65.4,26.1c1,0,1.8,0.8,1.8,1.8c0,1-0.8,1.8-1.8,1.8s-1.8-0.8-1.8-1.8
			C63.6,26.9,64.4,26.1,65.4,26.1z M47.5,26.1c1,0,1.8,0.8,1.8,1.8c0,1-0.8,1.8-1.8,1.8s-1.8-0.8-1.8-1.8
			C45.7,26.9,46.5,26.1,47.5,26.1z"/>
	</g>
</g>
<g id="Layer_4" class="st0">
	<g class="st1">
		<path class="st2" d="M24,22.2h4.4v72.6c0,3.2,2.6,5.8,5.8,5.8h54.6v4.4c0,1.7-1.3,3-3,3H24c-1.7,0-3-1.3-3-3V25.2
			C21,23.5,22.4,22.2,24,22.2L24,22.2z M34.2,12c-1.7,0-3,1.3-3,3v79.8c0,1.7,1.3,3,3,3H96c1.7,0,3-1.3,3-3V28.8H88
			c-3.2,0-5.8-2.6-5.8-5.8V12L34.2,12z M88,26h10.7c-0.1-0.3-0.3-0.6-0.6-0.9L85.9,12.9c-0.3-0.3-0.6-0.5-0.9-0.6V23
			C85,24.6,86.4,26,88,26z M42.6,31h25.8c0.8,0,1.4-0.6,1.4-1.4c0-0.8-0.6-1.4-1.4-1.4H42.6c-0.8,0-1.4,0.6-1.4,1.4
			C41.2,30.3,41.8,31,42.6,31z M42.6,37.7h14.7c0.8,0,1.4-0.6,1.4-1.4c0-0.8-0.6-1.4-1.4-1.4H42.6c-0.8,0-1.4,0.6-1.4,1.4
			C41.2,37.1,41.8,37.7,42.6,37.7z M77.7,40.8l0.8,0.2L45.5,60c-0.7,0.4-0.9,1.2-0.5,1.9c0.4,0.7,1.2,0.9,1.9,0.5l33-19.1l-0.3,0.8
			c-0.2,0.7,0.2,1.5,0.9,1.8c0.7,0.2,1.5-0.2,1.8-0.9l1.4-4.2c0-0.1,0-0.1,0.1-0.2c0.2-0.8-0.3-1.5-1.1-1.7l-4.4-0.9
			c-0.8-0.2-1.5,0.3-1.7,1.1C76.5,39.9,76.9,40.6,77.7,40.8L77.7,40.8z M50.6,83V72.4h-5.9l0,0V83l0,0L50.6,83L50.6,83z M79.5,83
			h5.9l0,0V51l0,0h-5.9l0,0L79.5,83z M70.8,83h5.9V56.1h-5.9l0,0V83z M62.1,83H68V61.2h-5.9l0,0V83z M53.4,83h5.9V67.5h-5.9l0,0V83z
			"/>
	</g>
</g>
<g id="Layer_5" class="st0">
	<g class="st1">
		<path class="st2" d="M104.7,23.7l-9-9c-1-1-2.7-1-3.8,0l-9,9l12.7,12.7l9-9C105.8,26.5,105.8,24.8,104.7,23.7L104.7,23.7z
			 M80.2,26.6L42.4,64.3L38,81.5l17.2-4.4l37.7-37.7L80.2,26.6L80.2,26.6z M53.5,74l-11.3,3.3L45.5,66L53.5,74z"/>
		<path class="st3" d="M19.4,32.5h48l-5.8,5.8H22.3v59.9h59.9V56.9l5.8-5.8v50c0,1.6-1.3,2.9-2.9,2.9H19.4c-1.6,0-2.9-1.3-2.9-2.9
			V35.4C16.5,33.8,17.8,32.5,19.4,32.5L19.4,32.5z"/>
	</g>
</g>
<g id="Layer_6" class="st0">
	<g class="st1">
		<path class="st4" d="M82.4,51.6c4.4,0,8.7-1.8,11.9-4.9c3.2-3.1,4.9-7.4,4.9-11.9s-1.8-8.7-4.9-11.9c-3.2-3.1-7.4-4.9-11.9-4.9
			c-4.5,0-8.7,1.8-11.9,4.9s-4.9,7.4-4.9,11.9c0,4.5,1.8,8.7,4.9,11.9C73.7,49.8,78,51.6,82.4,51.6L82.4,51.6z M81.9,36.2
			c-5-1.7-6.1-4.2-6.1-6.1c0-2.8,2.1-4.9,5.1-5.4v-2.3h2.9v2.4c1.4,0.2,2.6,0.9,3.6,1.9c0.9,1,1.5,2.4,1.6,3.8H86
			c0-1.6-1.7-2.9-3.7-2.9c-1.8,0-3.6,0.9-3.6,2.6c0,1.7,2.9,2.9,4.1,3.3c5,1.7,6.1,4.2,6.1,6.1c0,2.8-2.1,4.9-5.1,5.4v2.3h-2.9v-2.4
			c-1.4-0.2-2.6-0.9-3.6-1.9c-0.9-1-1.5-2.4-1.5-3.8h2.9c0,1.6,1.7,2.9,3.7,2.9c1.8,0,3.6-0.9,3.6-2.6C86,37.8,83.2,36.6,81.9,36.2
			L81.9,36.2z M18,32.2v-4.1C18,22.6,26.8,18,37.6,18s19.6,4.6,19.6,10.2v4c0,5.6-8.8,10.2-19.6,10.2S18,37.9,18,32.2z M102,63.9v4
			c0,5.6-8.8,10.2-19.6,10.2S62.8,73.6,62.8,68v-4c0-4.5,5.5-8.3,13.2-9.6c4.2,1.4,8.7,1.4,12.8,0C96.5,55.7,102,59.5,102,63.9z
			 M18,56.1v-4c0,0,0-0.1,0-0.1c4.1,3.8,11.2,6.1,19.6,6.1s15.5-2.4,19.6-6.1c0,0,0,0.1,0,0.1v4c0,5.6-8.8,10.2-19.6,10.2
			S18,61.7,18,56.1L18,56.1z M18,44.1v-4c0,0,0-0.1,0-0.1c4.1,3.8,11.2,6.2,19.6,6.2s15.5-2.4,19.6-6.1c0,0,0,0.1,0,0.1v4
			c0,5.6-8.8,10.2-19.6,10.2S18,49.8,18,44.1L18,44.1z M18,68v-4c0,0,0-0.1,0-0.1c4.1,3.8,11.2,6.1,19.6,6.1s15.5-2.4,19.6-6.1
			c0,0,0,0.1,0,0.1v4c0,5.6-8.8,10.2-19.6,10.2S18,73.6,18,68L18,68z M18,79.9v-4.1c0,0,0-0.1,0-0.1c4.1,3.8,11.2,6.2,19.6,6.2
			s15.5-2.4,19.6-6.2c0,0,0,0.1,0,0.1v4.1c0,5.6-8.8,10.2-19.6,10.2S18,85.5,18,79.9L18,79.9z M18,91.8v-4.1c0,0,0-0.1,0-0.1
			c4.1,3.8,11.2,6.2,19.6,6.2s15.5-2.4,19.6-6.2c0,0,0,0.1,0,0.1v4.1c0,5.6-8.8,10.2-19.6,10.2S18,97.4,18,91.8L18,91.8z M102,75.8
			C102,75.8,102,75.8,102,75.8l0,4.2c0,5.6-8.8,10.2-19.6,10.2s-19.6-4.6-19.6-10.2v-4.1c0,0,0-0.1,0-0.1c4.1,3.8,11.2,6.2,19.6,6.2
			S97.9,79.5,102,75.8L102,75.8z M102,87.7C102,87.7,102,87.7,102,87.7l0,4.1c0,5.6-8.8,10.2-19.6,10.2s-19.6-4.6-19.6-10.2v-4
			c0,0,0-0.1,0-0.1c4.1,3.8,11.2,6.2,19.6,6.2S97.9,91.4,102,87.7L102,87.7z"/>
	</g>
</g>
<g id="Layer_7" class="st0">
	<g class="st1">
		<path class="st4" d="M77.9,31.1c1.7-2.2-1.6-7.8-7.5-12.5c-5.9-4.7-12.1-6.8-13.9-4.7c-0.4,0.5-0.5,1.1-0.4,1.7l-2.8,3.5
			l20.2,16.3l2.8-3.5C77,31.8,77.5,31.5,77.9,31.1L77.9,31.1z"/>
		<path class="st4" d="M27.2,50.3c-1.7,2.2,1.6,7.8,7.5,12.5s12.1,6.8,13.9,4.6c0.4-0.5,0.5-1.1,0.4-1.7l2.8-3.5L31.6,46l-2.8,3.5
			l0,0C28.2,49.6,27.6,49.8,27.2,50.3L27.2,50.3z"/>
		<path class="st4" d="M104.7,77.7L72.2,51.5c0.4-0.5,0.5-1.1,0.5-1.6c0-0.6-0.3-1.1-0.7-1.6l-6.4-6.6l4.3-5.4L53.2,22.7l-18,22.4
			l16.7,13.5l4.3-5.4l7.8,4.8l0,0c0.5,0.3,1.1,0.4,1.7,0.3s1.1-0.4,1.5-0.9l32.6,26.2c0.8,0.6,1.8,0.9,2.8,0.8
			c1-0.1,1.9-0.6,2.6-1.4c0.6-0.8,0.9-1.8,0.8-2.8C106,79.3,105.5,78.4,104.7,77.7L104.7,77.7z"/>
		<path class="st4" d="M68.4,93.8c0-0.7-0.3-1.4-0.9-1.9c-0.5-0.5-1.2-0.8-2-0.8h-0.3v-1.8c0-0.8-0.3-1.5-0.8-2
			c-0.5-0.5-1.3-0.8-2-0.8h-39c-0.8,0-1.5,0.3-2,0.8s-0.8,1.3-0.8,2v1.8h-0.2c-0.7,0-1.4,0.3-2,0.8c-0.5,0.5-0.8,1.2-0.9,1.9
			L68.4,93.8z"/>
		<path class="st4" d="M15.4,96.8l-1.4,4.5c-0.2,0.5-0.2,1-0.1,1.5s0.3,0.9,0.7,1.3c0.5,0.5,1.3,0.8,2,0.8h52.8
			c0.9,0,1.7-0.4,2.2-1.2c0.5-0.7,0.6-1.7,0.3-2.5l-1.4-4.4L15.4,96.8z"/>
	</g>
</g>
<g id="Layer_8">
	<g>
		<path class="st4" d="M39.5,56.9c2.7-1.2,5.9-1.8,9.6-1.8c1.8,0,3.3,0.2,4.9,0.4l0.6-5.9l22.5-22.9l-12.9-5.3L40.9,43.6L39.5,56.9z
			"/>
		<path class="st4" d="M92.5,36.4c-2.1,2.3-0.4,5.9,4.1,7.8l-11,12.5c-4.7-2.1-10.4-1.6-13.1,1.4l-15.9-7.4l-0.4,0.4L56,54.8
			l22.1,10.8c2.9,1.4,6.7,1,8-0.8l19.2-22.9c1.2-1.6,0-3.5-2.7-4.7l-23.3-9.6l-2.3,2.3L92.5,36.4z"/>
		<path class="st4" d="M15.8,35.2l22.9,11l0.4-3.7l0.2-0.2l-13.7-6.4c2.7-2.3,2-5.5-1.6-7l12.3-9.6c3.5,1.4,8.4,1,10.8-1l12.1,4.9
			l2.3-2.3l-18.2-7.2c-2-0.8-4.9-0.6-6.3,0.6L15.2,30.9C13.5,32.3,13.7,34,15.8,35.2L15.8,35.2z"/>
		<path class="st4" d="M45.8,36l7.4-7c-2,0.6-3.9,1.4-5.3,2.5C46.6,32.6,45.8,34.4,45.8,36z"/>
		<path class="st4" d="M71.6,35.4L63.2,44c2.7-0.6,5.1-1.6,6.7-3.1C71.6,39.3,72,37.3,71.6,35.4z"/>
		<path class="st4" d="M86.7,48.1c2-2.1,0.4-4.9-2.9-6.5c-3.5-1.4-7.8-1-9.8,1c-2,2-0.8,4.9,2.7,6.5C80.2,50.6,84.7,50.3,86.7,48.1z
			"/>
		<path class="st4" d="M43,24.4c-2.9-1.2-6.8-0.8-8.8,0.8c-2.3,1.8-1.8,4.1,1.2,5.5c2.9,1.4,7,1,9.2-0.8
			C46.6,28.1,45.8,25.8,43,24.4z"/>
		<path class="st4" d="M65.9,66.9l12.9,6.3c2.9,1.4,6.7,1,8.2-0.8l19-23.1c1-1.2,0.4-2.7-1.2-3.7L88,65.9c-1.8,2.1-5.3,2.9-8.6,2
			c-0.6-0.2-15.3-7.2-15.3-7.2c1.2,1.4,2,3.1,2,4.9v1.4L65.9,66.9z"/>
		<path class="st4" d="M38.3,48.3L16.8,37.9l-1.2,0.8c-1.8,1.4-1.6,3.1,0.6,4.3l21.5,10.4L38.3,48.3z"/>
		<path class="st4" d="M37.4,58.1l0.2-2.5l-20.3-9.8L16,46.5c-1.8,1.4-1.6,3.3,0.6,4.3L35,59.6C35.8,59.1,36.6,58.5,37.4,58.1
			L37.4,58.1z"/>
		<path class="st4" d="M105.5,53.4l-17,20.3c-1.8,2.1-5.3,2.9-8.8,2c-0.6-0.2-13.9-6.5-13.9-6.5v5.5L79,81.2c2.9,1.4,6.7,1,8-0.8
			l19.2-22.9C107.6,56.1,107,54.6,105.5,53.4L105.5,53.4z"/>
		<path class="st4" d="M105.9,61.2l-17,20.4c-1.8,2.1-5.3,2.9-8.8,2c-0.6-0.2-14.3-6.7-14.3-6.7v5.5L79.6,89c2.9,1.4,6.5,1,8-0.8
			l19.2-22.9C108,64,107.4,62.4,105.9,61.2L105.9,61.2z"/>
		<path class="st4" d="M32.3,65.3c0-1.6,0.6-2.9,1.4-4.1l-15.9-7.6l-1.2,0.8c-1.8,1.4-1.6,3.3,0.6,4.3l15.1,7.2V65.3z"/>
		<path class="st4" d="M17.6,66.5l11,5.3c0.8,0,1.4-0.2,2.1-0.2h1.6v-3.5l-14.1-6.8l-1.2,1C15.4,63.8,15.6,65.5,17.6,66.5L17.6,66.5
			z"/>
		<path class="st4" d="M106.4,69.2l-17,20.1c-1.8,2.1-5.3,2.9-8.8,2c-0.6-0.2-14.7-7-14.7-7v5.5l14.3,6.8c2.9,1.4,6.7,1,8-0.8
			L107.4,73C108.4,71.8,108,70.2,106.4,69.2L106.4,69.2z"/>
		<path class="st4" d="M28.5,87c0,0.4,0.2,0.8,0.4,1c0.2,0.2,0.8,0.4,1.4,0.8v-3.1c-0.6,0-1,0.2-1.4,0.4
			C28.7,86.3,28.5,86.7,28.5,87L28.5,87z"/>
		<path class="st4" d="M31.5,91.4v3.3c0.6,0,1-0.2,1.4-0.6c0.4-0.2,0.6-0.6,0.6-1c0-0.4-0.2-0.8-0.4-1
			C32.9,91.7,32.3,91.6,31.5,91.4L31.5,91.4z"/>
		<path class="st4" d="M30.7,78.8c-6.3,0-11.5,5.1-11.5,11.5c0,6.3,5.1,11.5,11.5,11.5s11.5-5.1,11.5-11.5
			C42.3,83.9,37.2,78.8,30.7,78.8z M34.6,95.5c-0.8,0.6-1.8,1-2.9,1.2V98h-1.4v-1.4c-1.8-0.2-3.1-0.8-4.5-2l1.4-1.6
			c1,1,2.1,1.4,3.1,1.6v-3.5c-1.4-0.4-2.3-0.8-3.1-1.4c-0.6-0.6-1-1.4-1-2.3c0-1,0.4-2,1.2-2.5c0.8-0.6,1.8-1,2.9-1.2v-1h1.2v1
			c1.4,0.2,2.5,0.6,3.9,1.4l-1.2,1.8c-0.8-0.6-1.8-1-2.5-1v3.5c1.4,0.4,2.3,0.8,3.1,1.4c0.6,0.6,1,1.4,1,2.5
			C35.6,93.9,35.4,94.9,34.6,95.5L34.6,95.5z"/>
		<path class="st4" d="M49.1,57.1c-8.2,0-14.9,3.7-14.9,8.2v6.5c0,0.8,0.2,1.6,0.6,2.1c-1.4-0.4-2.7-0.6-4.1-0.6
			c-9.2,0-16.6,7.4-16.6,16.6c0,9.6,7.4,17,16.6,17c2.9,0,5.9-0.8,8.2-2.1c2.5,1.4,6.1,2.1,10,2.1c8.2,0,14.9-3.7,14.9-8.2v-4.3
			c-2.3,3.5-8,5.9-14.9,5.9c-1.6,0-3.1-0.2-4.7-0.4c0.4-0.6,0.8-1.4,1.2-2c1.2,0.2,2.3,0.2,3.5,0.2c8.2,0,14.9-3.7,14.9-8.2v-4.5
			c-2.3,3.5-8,5.9-14.9,5.9h-1.8v-1v-1.2h1.8c8.2,0,14.9-3.7,14.9-8.2v-4.3c-2.3,3.5-8,5.9-14.9,5.9c-1.4,0-2.5-0.2-3.7-0.2
			c-0.6-1-1-1.8-1.8-2.5c1.8,0.4,3.5,0.6,5.5,0.6c8.2,0,14.9-3.7,14.9-8.2v-6.5C64,60.8,57.3,57.1,49.1,57.1L49.1,57.1z M44.4,90.4
			c0,7.4-6.1,13.5-13.5,13.5s-13.5-6.1-13.5-13.5s6.1-13.5,13.5-13.5C38.3,76.9,44.4,82.7,44.4,90.4z M49.1,71.8
			C42.4,71.8,37,69,37,65.5c0-3.5,5.5-6.3,12.1-6.3c6.7,0,12.1,2.7,12.1,6.3C61.2,68.8,55.8,71.8,49.1,71.8z"/>
		<path class="st4" d="M49.1,60.4c-5.7,0-10.2,2.1-10.2,5.1c0,2.7,4.5,5.1,10.2,5.1c5.7,0,10.2-2.1,10.2-5.1
			C59.3,62.6,54.8,60.4,49.1,60.4z M52.4,68.1c-0.6,0.4-1.6,0.6-2.7,0.6v0.6h-1v-0.6c-1.6,0-2.7-0.4-4.1-1l1.2-0.8
			c1,0.4,1.8,0.8,2.7,0.8v-1.8c-1.2-0.2-2.1-0.4-2.7-0.6c-0.6-0.2-0.8-0.6-0.8-1.2c0-0.6,0.4-1,1-1.4c0.6-0.4,1.6-0.6,2.5-0.6v-0.4
			h1v0.4c1.2,0,2.3,0.2,3.3,0.6l-1,0.8c-0.8-0.2-1.6-0.4-2.3-0.6v1.8c1.2,0.2,2.1,0.4,2.7,0.6c0.6,0.2,1,0.6,1,1.2
			C53.4,67.3,53.2,67.7,52.4,68.1L52.4,68.1z"/>
		<path class="st4" d="M47.1,63.8c0,0.2,0.2,0.4,0.4,0.4c0.2,0.2,0.6,0.2,1.2,0.4V63c-0.6,0-0.8,0.2-1.2,0.2
			C47.3,63.4,47.1,63.6,47.1,63.8z"/>
		<path class="st4" d="M51.1,66.3c-0.2-0.2-0.8-0.2-1.4-0.4v1.6c0.6,0,1-0.2,1.2-0.2c0.4-0.2,0.4-0.4,0.4-0.6
			C51.4,66.5,51.4,66.3,51.1,66.3L51.1,66.3z"/>
	</g>
</g>
<g id="Layer_9" class="st0">
	<g class="st1">
		<path class="st5" d="M55.6,15.7c0-3.8,2.2-5.7,4.4-5.7c2.2,0,4.4,1.9,4.4,5.7v2c1.5,1,2.7,2.4,3.4,4.1h22.4c1.2,0,2.2,0.7,2.6,1.7
			v0l10.3,23.8c0.2,0.4,0.1,0.8-0.3,1.1c-0.3,0.3-0.8,0.3-1.1,0c-1.6-1.3-3.4-2.3-5.4-3c-0.2-0.1-0.4-0.3-0.5-0.5l-5.7-13.1L84.6,45
			c-0.1,0.2-0.3,0.4-0.5,0.5c-2,0.7-3.8,1.7-5.4,3c-0.3,0.3-0.8,0.3-1.1,0c-0.3-0.3-0.4-0.7-0.3-1.1L86,27.6H67.8
			c-0.6,1.7-1.8,3.2-3.4,4.1v58.9c0,1.1,0.3,2,0.9,3c3.5,5.1,9,4,15.4,4.9c4.4,0.6,4.2,5.5,0.7,5.5h-43c-3.5,0-3.7-4.9,0.7-5.5
			c6.4-0.9,11.9,0.1,15.4-4.9c0.6-0.9,0.9-1.8,0.9-3V31.7c-1.5-1-2.7-2.4-3.4-4.1H34l8.6,19.8c0.2,0.4,0.1,0.8-0.3,1.1
			c-0.3,0.3-0.8,0.3-1.1,0c-1.6-1.3-3.4-2.3-5.4-3c-0.2-0.1-0.4-0.3-0.5-0.5l-5.7-13.1L24.1,45c-0.1,0.2-0.3,0.4-0.5,0.5
			c-2,0.7-3.8,1.7-5.4,3c-0.3,0.3-0.8,0.3-1.1,0c-0.3-0.3-0.4-0.7-0.3-1.1l10.3-23.8v0c0.4-1,1.4-1.7,2.6-1.7h22.4
			c0.6-1.7,1.8-3.2,3.4-4.1V15.7L55.6,15.7z M90.1,48c9.3,0,16.9,7.6,16.9,16.9c0,9.3-7.6,16.9-16.9,16.9s-16.9-7.6-16.9-16.9
			C73.2,55.6,80.8,48,90.1,48z M82.7,70.5c-0.3,0.3-0.2,0.7,0.1,1l2,1.7c0.3,0.3,0.7,0.2,1-0.1l11.6-13.8c0.3-0.3,0.2-0.7-0.1-1
			l-2-1.7c-0.3-0.3-0.7-0.2-1,0.1L82.7,70.5z M95.9,67.1c-1.7,0-3.1,1.4-3.1,3.1c0,1.7,1.4,3.1,3.1,3.1c1.7,0,3.1-1.4,3.1-3.1
			C98.9,68.4,97.6,67.1,95.9,67.1z M84.3,56.6c-1.7,0-3.1,1.4-3.1,3.1c0,1.7,1.4,3.1,3.1,3.1c1.7,0,3.1-1.4,3.1-3.1
			C87.4,58,86,56.6,84.3,56.6z M29.9,48c9.3,0,16.9,7.6,16.9,16.9c0,9.3-7.6,16.9-16.9,16.9S13,74.2,13,64.9
			C13,55.6,20.6,48,29.9,48z M23.4,60.6c0-2.9,1.9-5.1,4.6-5.9l0-2.2c0-0.5,0.4-0.8,0.8-0.8H31c0.5,0,0.8,0.4,0.8,0.8l0,2.1
			c0.5,0.1,1,0.3,1.5,0.6c1.7,1,2.7,2.6,3,4.5c0.1,0.3,0,0.5-0.2,0.7c-0.2,0.2-0.4,0.3-0.6,0.3h-2c-0.4,0-0.7-0.2-0.8-0.6
			c-0.8-2.5-5.4-2.8-5.4,0.3c0,1.7,2.2,2.3,3.4,2.8c3,1.1,5.7,2.3,5.7,6c0,2.9-1.9,5.1-4.6,5.9l0,2.2c0,0.5-0.4,0.8-0.8,0.8h-2.1
			c-0.5,0-0.8-0.4-0.8-0.8l0-2.1c-0.5-0.1-1-0.3-1.5-0.6c-1.7-1-2.7-2.6-3-4.5c-0.1-0.3,0-0.5,0.2-0.7c0.2-0.2,0.4-0.3,0.6-0.3h1.9
			c0.4,0,0.7,0.2,0.8,0.6c0.8,2.5,5.4,2.8,5.4-0.3c0-1.8-2.5-2.4-3.8-2.9C25.8,65.4,23.4,64.2,23.4,60.6L23.4,60.6z M60,21.4
			L60,21.4c-1.9,0-3.3,1.5-3.3,3.3c0,1.8,1.5,3.3,3.3,3.3H60c1.8,0,3.3-1.5,3.3-3.3C63.3,22.9,61.8,21.4,60,21.4L60,21.4z"/>
	</g>
</g>
</svg>
