<?xml version="1.0" encoding="utf-8"?>
<!-- Generator: Adobe Illustrator 23.0.3, SVG Export Plug-In . SVG Version: 6.00 Build 0)  -->
<svg version="1.1" id="Layer_1" xmlns="http://www.w3.org/2000/svg" xmlns:xlink="http://www.w3.org/1999/xlink" x="0px" y="0px"
	 viewBox="0 0 300 142" style="enable-background:new 0 0 300 142;" xml:space="preserve">
<style type="text/css">
	.st0{fill-rule:evenodd;clip-rule:evenodd;fill:url(#SVGID_1_);}
	.st1{fill-rule:evenodd;clip-rule:evenodd;fill:#FFFFFF;}
	.st2{fill:#FFFFFF;}
	.st3{fill:url(#SVGID_2_);}
</style>
<g>
	<linearGradient id="SVGID_1_" gradientUnits="userSpaceOnUse" x1="150.005" y1="9.3466" x2="150.005" y2="131.8954">
		<stop  offset="0.44" style="stop-color:#1A64AD"/>
		<stop  offset="0.63" style="stop-color:#1F3F8D"/>
		<stop  offset="0.96" style="stop-color:#2E2B78"/>
	</linearGradient>
	<path class="st0" d="M270.1,11.7c-4.2-2-8.8-3-13.5-3H43.4c-4.8,0-9.4,1.1-13.5,3c-4.2,2-8,4.8-11.2,8.4
		c-6.4,7.1-10.4,17-10.4,28.1v45.8c0,8.3,2.3,15.9,6.1,22.2c3.8,6.3,9.2,11.3,15.5,14.2c4.2,2,8.7,3,13.5,3h213.2
		c4.8,0,9.4-1.1,13.5-3c4.2-2,8-4.8,11.2-8.4c6.4-7.1,10.5-17,10.5-28V48.1c0-8.3-2.3-15.9-6.1-22.2
		C281.8,19.6,276.4,14.6,270.1,11.7z"/>
	<g>
		<path class="st1" d="M98.1,110.4H47.4c0,0-17.9-0.2-17.9-16.6c0-16.4,0-61.5,0-61.5h25.2v57.4c0,0-0.7,5.3,5.1,5.2
			c5.7-0.1,38.3,0,38.3,0V110.4z"/>
		<path class="st1" d="M197.5,34.5c0,1.7,0,58.5,0,58.5s0.6,16.9,14.7,16.9c14.1,0,50.3,0,50.3,0s9.7-6,7-15.4h-41.3
			c0,0-3.6-0.4-3.6-3.7c0-3.3,0-11.6,0-11.6s-0.3-2.8,5-2.8c5.3,0,39.1,0,39.1,0s1.8-0.1,1.8-3.1c0-2.9,0-9.1,0-9.1s0.3-1.5-2.5-1.5
			c-2.8,0-40.9,0-40.9,0s-2.5,0-2.5-2.4c0-2.5,0-12.5,0-12.5s-0.2-1.7,2.9-1.7c3.2,0,40.6,0,40.6,0s1.9-0.6,1.5-2.3
			c-0.5-1.7-4.6-11.4-12.9-11.4c-8.3,0-57.9,0-57.9,0S197.5,32.7,197.5,34.5z"/>
		<path class="st2" d="M184.7,69.8h-2h-20.8l-5.2,7.9l-12.4-14.1c2.3-1.9,4.7-4.1,6.7-6.7c2.2-2.9,3.9-6.3,3.9-10.1
			c0-0.9-0.1-1.8-0.3-2.7c-1.4-6.4-6.1-11.7-12.4-13.5c-1.9-0.5-3.8-0.8-5.7-0.8c-4,0-8.1,1.2-11.6,3.4c-3.4,2.2-6.2,5.4-7.4,9.6
			c-0.4,1.4-0.6,3-0.6,4.4c0,0.2,0,0.3,0,0.4c0,1.3,0.2,2.7,0.5,4c0.9,3.2,2.4,6,4.2,8.6c0.7,1,1.5,2.1,2.5,3
			c0.2,0.2,0.3,0.3,0.4,0.5l0.1,0.1c0,0,0,0.1,0,0.2c0,0.5-0.2,1.5-0.8,2.2c-0.2,0.2-0.6,0.7-1.1,1.2c-0.8,0.8-1.8,1.9-2.8,3
			c-1,1.1-1.9,2.2-2.6,3.1v0l-0.1,0.2c-3.1,4.4-4.8,9.6-4.8,14.8c0,3.9,1,7.8,2.9,11.4c4.4,7.9,12.8,12.2,21.6,12.2
			c4.6,0,9.3-1.2,13.6-3.6c2.4-1.3,4.5-3,6.4-4.9h0.3c0.1,0,0.3,0,0.4,0.1l0.2,0.1l0,0l4.8,5.4l21.9,0.1l-15.1-17.2L184.7,69.8z
			 M137.3,54.3c-0.6,0.5-1.1,0.8-1.5,1.1c0,0,0,0,0,0c-2.3-1.7-3.6-3.5-4.3-5c-0.8-1.6-0.8-2.9-0.8-3.5v-0.2l0,0l0,0v0l0,0
			c0.3-2.8,2.7-5,5.5-5c1.5,0,2.9,0.6,3.9,1.6c1,1,1.6,2.4,1.6,3.9c0,1.1-0.4,2.1-0.9,2.9v0.1l-0.1,0.1
			C139.9,52,138.5,53.4,137.3,54.3z M133.4,77.2c0.3-0.2,0.6-0.3,0.9-0.5l12.6,14.5c-0.8,1-1.7,1.9-2.9,2.7c-1.9,1.2-4,1.8-6.1,1.8
			c-3.4,0-6.5-1.5-8.3-4.4c-1-1.5-1.4-3.2-1.4-5C128.2,82.8,130,79.3,133.4,77.2z"/>
	</g>
	<radialGradient id="SVGID_2_" cx="153.1521" cy="73.3534" r="477.7121" gradientUnits="userSpaceOnUse">
		<stop  offset="0" style="stop-color:#FFFFFF"/>
		<stop  offset="1" style="stop-color:#000000"/>
	</radialGradient>
	<path class="st3" d="M287.4,14.5c-3.9-4.3-8.6-7.8-13.8-10.3c-5.2-2.4-11-3.8-17-3.8H43.4c-6,0-11.8,1.4-17,3.8
		c-7.8,3.7-14.4,9.8-19,17.4C2.7,29.2,0,38.3,0,48.1v45.8c0,13,4.8,24.9,12.6,33.6c3.9,4.3,8.6,7.9,13.8,10.3c5.2,2.5,11,3.8,17,3.8
		h213.2c6,0,11.8-1.4,17-3.8c7.8-3.7,14.4-9.8,19.1-17.4c4.6-7.6,7.3-16.7,7.3-26.5V48.1C300,35.1,295.2,23.2,287.4,14.5z
		 M291.8,93.9c0,11-4,20.9-10.5,28c-3.2,3.6-7,6.4-11.2,8.4c-4.2,2-8.8,3-13.5,3H43.4c-4.8,0-9.4-1.1-13.5-3
		c-6.3-2.9-11.7-7.9-15.5-14.2c-3.8-6.3-6.1-13.9-6.1-22.2V48.1c0-11,4-20.9,10.4-28.1c3.2-3.6,7-6.4,11.2-8.4c4.2-2,8.7-3,13.5-3
		h213.2c4.8,0,9.4,1.1,13.5,3c6.3,2.9,11.7,7.9,15.5,14.2c3.8,6.3,6.1,14,6.1,22.2V93.9z"/>
</g>
</svg>
