<?xml version="1.0" encoding="utf-8"?>
<!-- Generator: Adobe Illustrator 23.0.3, SVG Export Plug-In . SVG Version: 6.00 Build 0)  -->
<svg version="1.1" id="Layer_1" xmlns="http://www.w3.org/2000/svg" xmlns:xlink="http://www.w3.org/1999/xlink" x="0px" y="0px"
	 viewBox="0 0 50 50" style="enable-background:new 0 0 50 50;" xml:space="preserve">
<style type="text/css">
	.st0{fill:#292E49;}
</style>
<path class="st0" d="M46.9,20.5c-4.3,0-8.5-1.3-12-3.8v17.5c0,8.8-7.1,15.9-15.9,15.9s-15.8-7.2-15.8-16s7.1-15.9,15.9-15.9
	c0.7,0,1.5,0.1,2.2,0.2v8.8c-3.8-1.2-7.9,0.9-9.1,4.8s0.9,7.9,4.8,9.1c3.8,1.2,7.9-0.9,9.1-4.8c0.2-0.7,0.3-1.4,0.3-2.2V0H35
	c0,0.7,0.1,1.5,0.2,2.2l0,0c0.6,3.2,2.5,6.1,5.3,7.8c1.9,1.3,4.2,2,6.5,2L46.9,20.5L46.9,20.5z"/>
</svg>
